<svg style="display:none"><symbol viewBox="0 0 511.626 511.626" id="eye-open"> <g> <path d="M505.918,236.117c-26.651-43.587-62.485-78.609-107.497-105.065c-45.015-26.457-92.549-39.687-142.608-39.687
		c-50.059,0-97.595,13.225-142.61,39.687C68.187,157.508,32.355,192.53,5.708,236.117C1.903,242.778,0,249.345,0,255.818
		c0,6.473,1.903,13.04,5.708,19.699c26.647,43.589,62.479,78.614,107.495,105.064c45.015,26.46,92.551,39.68,142.61,39.68
		c50.06,0,97.594-13.176,142.608-39.536c45.012-26.361,80.852-61.432,107.497-105.208c3.806-6.659,5.708-13.223,5.708-19.699
		C511.626,249.345,509.724,242.778,505.918,236.117z M194.568,158.03c17.034-17.034,37.447-25.554,61.242-25.554
		c3.805,0,7.043,1.336,9.709,3.999c2.662,2.664,4,5.901,4,9.707c0,3.809-1.338,7.044-3.994,9.704
		c-2.662,2.667-5.902,3.999-9.708,3.999c-16.368,0-30.362,5.808-41.971,17.416c-11.613,11.615-17.416,25.603-17.416,41.971
		c0,3.811-1.336,7.044-3.999,9.71c-2.667,2.668-5.901,3.999-9.707,3.999c-3.809,0-7.044-1.334-9.71-3.999
		c-2.667-2.666-3.999-5.903-3.999-9.71C169.015,195.482,177.535,175.065,194.568,158.03z M379.867,349.04
		c-38.164,23.12-79.514,34.687-124.054,34.687c-44.539,0-85.889-11.56-124.051-34.687s-69.901-54.2-95.215-93.222
		c28.931-44.921,65.19-78.518,108.777-100.783c-11.61,19.792-17.417,41.207-17.417,64.236c0,35.216,12.517,65.329,37.544,90.362
		s55.151,37.544,90.362,37.544c35.214,0,65.329-12.518,90.362-37.544s37.545-55.146,37.545-90.362
		c0-23.029-5.808-44.447-17.419-64.236c43.585,22.265,79.846,55.865,108.776,100.783C449.767,294.84,418.031,325.913,379.867,349.04
		z"/> </g>                </symbol><symbol viewBox="0 0 511.626 511.627" id="heart-shape-silhouette"> <g> <path d="M475.366,71.951c-24.175-23.606-57.575-35.404-100.215-35.404c-11.8,0-23.843,2.046-36.117,6.136
		c-12.279,4.093-23.702,9.615-34.256,16.562c-10.568,6.945-19.65,13.467-27.269,19.556c-7.61,6.091-14.845,12.564-21.696,19.414
		c-6.854-6.85-14.087-13.323-21.698-19.414c-7.616-6.089-16.702-12.607-27.268-19.556c-10.564-6.95-21.985-12.468-34.261-16.562
		c-12.275-4.089-24.316-6.136-36.116-6.136c-42.637,0-76.039,11.801-100.211,35.404C12.087,95.552,0,128.288,0,170.162
		c0,12.753,2.24,25.889,6.711,39.398c4.471,13.514,9.566,25.031,15.275,34.546c5.708,9.514,12.181,18.796,19.414,27.837
		c7.233,9.042,12.519,15.27,15.846,18.699c3.33,3.422,5.948,5.899,7.851,7.419L243.25,469.937c3.427,3.429,7.614,5.144,12.562,5.144
		s9.138-1.715,12.563-5.137l177.87-171.307c43.588-43.583,65.38-86.41,65.38-128.475C511.626,128.288,499.537,95.552,475.366,71.951
		z"/> </g>                </symbol><symbol viewBox="0 0 548.165 548.165" id="photo-camera"> <g> <g> <path d="M526.76,131.045c-14.277-14.274-31.498-21.413-51.675-21.413h-63.953l-14.558-38.826
			c-3.618-9.325-10.229-17.368-19.846-24.128c-9.613-6.757-19.462-10.138-29.551-10.138H200.996
			c-10.088,0-19.939,3.381-29.552,10.138c-9.613,6.76-16.225,14.803-19.842,24.128l-14.56,38.826H73.089
			c-20.179,0-37.401,7.139-51.678,21.413C7.137,145.32,0,162.544,0,182.721v255.813c0,20.178,7.137,37.404,21.411,51.675
			c14.277,14.277,31.5,21.416,51.678,21.416h401.989c20.177,0,37.397-7.139,51.675-21.416
			c14.273-14.271,21.412-31.497,21.412-51.675V182.721C548.169,162.544,541.03,145.32,526.76,131.045z M364.446,400.993
			c-25.029,25.03-55.147,37.548-90.362,37.548s-65.331-12.518-90.362-37.548c-25.031-25.026-37.544-55.151-37.544-90.358
			c0-35.218,12.517-65.333,37.544-90.364c25.028-25.031,55.148-37.544,90.362-37.544s65.333,12.516,90.362,37.544
			c25.03,25.028,37.545,55.146,37.545,90.364C401.991,345.842,389.477,375.964,364.446,400.993z"/> <path d="M274.084,228.403c-22.651,0-42.018,8.042-58.102,24.128c-16.084,16.084-24.126,35.448-24.126,58.104
			c0,22.647,8.042,42.014,24.126,58.098c16.084,16.081,35.45,24.123,58.102,24.123c22.648,0,42.017-8.042,58.101-24.123
			c16.084-16.084,24.127-35.45,24.127-58.098c0-22.655-8.043-42.019-24.127-58.104C316.102,236.446,296.732,228.403,274.084,228.403
			z"/> </g> </g>                </symbol></svg>